<?xml version="1.0" encoding="UTF-8" standalone="no"?>
<!DOCTYPE svg PUBLIC "-//W3C//DTD SVG 1.1//EN" "http://www.w3.org/Graphics/SVG/1.1/DTD/svg11.dtd">
<svg xmlns="http://www.w3.org/2000/svg" version="1.1" viewBox="0.00 0.00 828.00 828.00">
<g stroke-width="2.00" fill="none" stroke-linecap="butt">
<path stroke="#84a9c9" vector-effect="non-scaling-stroke" d="
  M 150.47 347.35
  A 0.53 0.53 0.0 0 1 151.00 346.82
  L 195.52 346.87
  A 0.53 0.53 0.0 0 0 196.05 346.34
  L 196.13 330.13
  A 0.53 0.53 0.0 0 0 195.60 329.60
  L 80.01 329.63
  A 0.53 0.53 0.0 0 0 79.48 330.16
  L 79.54 346.34
  A 0.53 0.53 0.0 0 0 80.07 346.87
  L 124.70 346.80
  A 0.53 0.53 0.0 0 1 125.23 347.33
  L 125.23 482.01
  A 0.53 0.53 0.0 0 0 125.76 482.54
  L 149.95 482.61
  A 0.53 0.53 0.0 0 0 150.48 482.08
  L 150.47 347.35"
/>
<path stroke="#9fc1e1" vector-effect="non-scaling-stroke" d="
  M 250.12 330.33
  A 0.64 0.64 0.0 0 0 249.48 329.69
  L 225.90 329.69
  A 0.64 0.64 0.0 0 0 225.26 330.33
  L 225.26 481.85
  A 0.64 0.64 0.0 0 0 225.90 482.49
  L 249.48 482.49
  A 0.64 0.64 0.0 0 0 250.12 481.85
  L 250.12 330.33"
/>
<path stroke="#84a9c9" vector-effect="non-scaling-stroke" d="
  M 295.12 422.05
  Q 297.97 420.94 300.70 419.17
  Q 319.83 406.79 322.42 383.35
  C 325.82 352.67 301.60 331.81 272.86 329.78
  Q 266.02 329.30 258.89 329.63
  A 0.42 0.42 0.0 0 0 258.49 330.05
  L 258.52 348.04
  A 0.64 0.64 0.0 0 0 259.17 348.68
  C 265.27 348.58 272.04 348.24 277.96 349.61
  Q 291.79 352.84 296.59 365.85
  C 298.45 370.87 298.45 376.90 298.16 382.29
  C 297.42 396.49 289.25 408.60 273.86 408.95
  Q 266.56 409.12 258.83 408.96
  A 0.33 0.32 0.0 0 0 258.50 409.28
  L 258.52 427.03
  A 0.50 0.50 0.0 0 0 259.03 427.53
  L 273.35 427.42
  A 0.73 0.71 -13.5 0 1 273.99 427.80
  L 302.37 482.18
  A 0.72 0.70 76.1 0 0 303.00 482.57
  L 328.20 482.64
  A 0.56 0.55 -14.7 0 0 328.69 481.81
  L 294.70 423.25
  A 0.84 0.84 0.0 0 1 295.12 422.05"
/>
<path stroke="#84a9c9" vector-effect="non-scaling-stroke" d="
  M 605.05 433.83
  Q 604.98 433.85 604.93 433.87
  Q 604.73 433.91 604.62 433.71
  Q 579.49 389.54 554.43 345.33
  A 0.44 0.43 -21.6 0 0 553.96 345.13
  Q 553.63 345.20 553.70 345.53
  Q 553.74 345.75 553.74 345.97
  Q 553.73 368.44 553.77 389.85
  A 9.35 9.35 0.0 0 0 554.99 394.43
  L 604.77 481.80
  A 1.46 1.46 0.0 0 0 606.04 482.54
  L 629.95 482.60
  A 0.64 0.63 0.0 0 0 630.59 481.97
  L 630.60 330.07
  A 0.53 0.52 0.0 0 0 630.07 329.55
  L 605.56 329.61
  Q 605.17 329.61 605.17 330.00
  Q 605.11 381.97 605.16 433.69
  A 0.15 0.14 -7.9 0 1 605.05 433.83"
/>
<path stroke="#9fc1e1" vector-effect="non-scaling-stroke" d="
  M 422.19 369.02
  A 0.32 0.32 0.0 0 1 422.79 369.02
  L 462.06 482.28
  A 0.32 0.32 0.0 0 0 462.36 482.50
  L 487.39 482.48
  A 0.32 0.32 0.0 0 0 487.69 482.06
  L 434.78 330.10
  A 0.32 0.32 0.0 0 0 434.48 329.89
  L 410.32 329.90
  A 0.32 0.32 0.0 0 0 410.01 330.11
  L 356.68 482.05
  A 0.32 0.32 0.0 0 0 356.98 482.48
  L 382.24 482.50
  A 0.32 0.32 0.0 0 0 382.55 482.29
  L 422.19 369.02"
/>
<path stroke="#9fc1e1" vector-effect="non-scaling-stroke" d="
  M 545.28 330.29
  A 0.59 0.59 0.0 0 0 544.69 329.70
  L 520.59 329.70
  A 0.59 0.59 0.0 0 0 520.00 330.29
  L 520.00 481.89
  A 0.59 0.59 0.0 0 0 520.59 482.48
  L 544.69 482.48
  A 0.59 0.59 0.0 0 0 545.28 481.89
  L 545.28 330.29"
/>
<path stroke="#84a9c9" vector-effect="non-scaling-stroke" d="
  M 734.26 389.75
  L 741.76 373.71
  A 0.69 0.68 29.6 0 0 741.52 372.85
  C 731.94 366.52 721.20 364.31 709.75 363.36
  A 0.44 0.44 0.0 0 0 709.27 363.80
  L 709.28 383.78
  A 0.62 0.61 -88.5 0 0 709.86 384.40
  Q 722.13 384.98 733.34 390.09
  Q 733.96 390.37 734.26 389.75"
/>
<path stroke="#9fc1e1" vector-effect="non-scaling-stroke" d="
  M 690.14 402.14
  C 688.81 398.23 689.39 392.44 692.35 389.03
  C 694.43 386.63 697.04 385.49 700.04 384.77
  A 0.98 0.98 0.0 0 0 700.79 383.82
  L 700.87 364.38
  A 0.51 0.51 0.0 0 0 700.31 363.87
  C 679.40 365.85 662.24 380.71 664.83 403.21
  Q 665.76 411.23 670.63 416.53
  C 678.19 424.76 689.42 430.42 700.56 433.48
  A 0.22 0.22 0.0 0 0 700.83 433.27
  L 700.82 411.97
  A 0.83 0.83 0.0 0 0 700.35 411.24
  C 696.55 409.46 691.56 406.31 690.14 402.14"
/>
<path stroke="#84a9c9" vector-effect="non-scaling-stroke" d="
  M 709.93 436.98
  C 716.62 440.04 724.94 442.42 723.92 451.82
  C 723.14 458.99 716.33 461.93 709.93 463.20
  A 0.83 0.82 -5.5 0 0 709.26 464.01
  L 709.30 482.51
  Q 709.31 483.28 710.07 483.18
  C 722.61 481.58 733.92 477.14 741.02 466.27
  C 745.37 459.60 746.61 451.53 745.62 443.74
  C 743.46 426.65 724.08 419.03 709.79 414.84
  A 0.39 0.39 0.0 0 0 709.29 415.22
  L 709.29 435.97
  A 1.12 1.11 -77.5 0 0 709.93 436.98"
/>
<path stroke="#84a9c9" vector-effect="non-scaling-stroke" d="
  M 441.57 450.77
  A 0.58 0.58 0.0 0 0 442.11 449.99
  L 436.35 434.36
  A 0.58 0.58 0.0 0 0 435.81 433.98
  L 408.72 433.98
  A 0.58 0.58 0.0 0 0 408.18 434.37
  L 402.79 449.99
  A 0.58 0.58 0.0 0 0 403.34 450.76
  L 441.57 450.77"
/>
<path stroke="#9fc1e1" vector-effect="non-scaling-stroke" d="
  M 700.13 464.24
  C 690.95 464.41 683.40 461.70 676.08 456.67
  Q 675.61 456.35 675.31 456.83
  L 665.25 472.72
  Q 664.99 473.14 665.39 473.44
  Q 681.03 484.65 700.52 483.41
  A 0.33 0.33 0.0 0 0 700.83 483.08
  L 700.84 464.94
  A 0.70 0.69 89.2 0 0 700.13 464.24"
/>
</g>
<path fill="#ffffff" fill-opacity="0" d="
  M 0.00 0.00
  L 828.00 0.00
  L 828.00 828.00
  L 0.00 828.00
  L 0.00 0.00
  Z
  M 150.47 347.35
  A 0.53 0.53 0.0 0 1 151.00 346.82
  L 195.52 346.87
  A 0.53 0.53 0.0 0 0 196.05 346.34
  L 196.13 330.13
  A 0.53 0.53 0.0 0 0 195.60 329.60
  L 80.01 329.63
  A 0.53 0.53 0.0 0 0 79.48 330.16
  L 79.54 346.34
  A 0.53 0.53 0.0 0 0 80.07 346.87
  L 124.70 346.80
  A 0.53 0.53 0.0 0 1 125.23 347.33
  L 125.23 482.01
  A 0.53 0.53 0.0 0 0 125.76 482.54
  L 149.95 482.61
  A 0.53 0.53 0.0 0 0 150.48 482.08
  L 150.47 347.35
  Z
  M 250.12 330.33
  A 0.64 0.64 0.0 0 0 249.48 329.69
  L 225.90 329.69
  A 0.64 0.64 0.0 0 0 225.26 330.33
  L 225.26 481.85
  A 0.64 0.64 0.0 0 0 225.90 482.49
  L 249.48 482.49
  A 0.64 0.64 0.0 0 0 250.12 481.85
  L 250.12 330.33
  Z
  M 295.12 422.05
  Q 297.97 420.94 300.70 419.17
  Q 319.83 406.79 322.42 383.35
  C 325.82 352.67 301.60 331.81 272.86 329.78
  Q 266.02 329.30 258.89 329.63
  A 0.42 0.42 0.0 0 0 258.49 330.05
  L 258.52 348.04
  A 0.64 0.64 0.0 0 0 259.17 348.68
  C 265.27 348.58 272.04 348.24 277.96 349.61
  Q 291.79 352.84 296.59 365.85
  C 298.45 370.87 298.45 376.90 298.16 382.29
  C 297.42 396.49 289.25 408.60 273.86 408.95
  Q 266.56 409.12 258.83 408.96
  A 0.33 0.32 0.0 0 0 258.50 409.28
  L 258.52 427.03
  A 0.50 0.50 0.0 0 0 259.03 427.53
  L 273.35 427.42
  A 0.73 0.71 -13.5 0 1 273.99 427.80
  L 302.37 482.18
  A 0.72 0.70 76.1 0 0 303.00 482.57
  L 328.20 482.64
  A 0.56 0.55 -14.7 0 0 328.69 481.81
  L 294.70 423.25
  A 0.84 0.84 0.0 0 1 295.12 422.05
  Z
  M 605.05 433.83
  Q 604.98 433.85 604.93 433.87
  Q 604.73 433.91 604.62 433.71
  Q 579.49 389.54 554.43 345.33
  A 0.44 0.43 -21.6 0 0 553.96 345.13
  Q 553.63 345.20 553.70 345.53
  Q 553.74 345.75 553.74 345.97
  Q 553.73 368.44 553.77 389.85
  A 9.35 9.35 0.0 0 0 554.99 394.43
  L 604.77 481.80
  A 1.46 1.46 0.0 0 0 606.04 482.54
  L 629.95 482.60
  A 0.64 0.63 0.0 0 0 630.59 481.97
  L 630.60 330.07
  A 0.53 0.52 0.0 0 0 630.07 329.55
  L 605.56 329.61
  Q 605.17 329.61 605.17 330.00
  Q 605.11 381.97 605.16 433.69
  A 0.15 0.14 -7.9 0 1 605.05 433.83
  Z
  M 422.19 369.02
  A 0.32 0.32 0.0 0 1 422.79 369.02
  L 462.06 482.28
  A 0.32 0.32 0.0 0 0 462.36 482.50
  L 487.39 482.48
  A 0.32 0.32 0.0 0 0 487.69 482.06
  L 434.78 330.10
  A 0.32 0.32 0.0 0 0 434.48 329.89
  L 410.32 329.90
  A 0.32 0.32 0.0 0 0 410.01 330.11
  L 356.68 482.05
  A 0.32 0.32 0.0 0 0 356.98 482.48
  L 382.24 482.50
  A 0.32 0.32 0.0 0 0 382.55 482.29
  L 422.19 369.02
  Z
  M 545.28 330.29
  A 0.59 0.59 0.0 0 0 544.69 329.70
  L 520.59 329.70
  A 0.59 0.59 0.0 0 0 520.00 330.29
  L 520.00 481.89
  A 0.59 0.59 0.0 0 0 520.59 482.48
  L 544.69 482.48
  A 0.59 0.59 0.0 0 0 545.28 481.89
  L 545.28 330.29
  Z
  M 734.26 389.75
  L 741.76 373.71
  A 0.69 0.68 29.6 0 0 741.52 372.85
  C 731.94 366.52 721.20 364.31 709.75 363.36
  A 0.44 0.44 0.0 0 0 709.27 363.80
  L 709.28 383.78
  A 0.62 0.61 -88.5 0 0 709.86 384.40
  Q 722.13 384.98 733.34 390.09
  Q 733.96 390.37 734.26 389.75
  Z
  M 690.14 402.14
  C 688.81 398.23 689.39 392.44 692.35 389.03
  C 694.43 386.63 697.04 385.49 700.04 384.77
  A 0.98 0.98 0.0 0 0 700.79 383.82
  L 700.87 364.38
  A 0.51 0.51 0.0 0 0 700.31 363.87
  C 679.40 365.85 662.24 380.71 664.83 403.21
  Q 665.76 411.23 670.63 416.53
  C 678.19 424.76 689.42 430.42 700.56 433.48
  A 0.22 0.22 0.0 0 0 700.83 433.27
  L 700.82 411.97
  A 0.83 0.83 0.0 0 0 700.35 411.24
  C 696.55 409.46 691.56 406.31 690.14 402.14
  Z
  M 709.93 436.98
  C 716.62 440.04 724.94 442.42 723.92 451.82
  C 723.14 458.99 716.33 461.93 709.93 463.20
  A 0.83 0.82 -5.5 0 0 709.26 464.01
  L 709.30 482.51
  Q 709.31 483.28 710.07 483.18
  C 722.61 481.58 733.92 477.14 741.02 466.27
  C 745.37 459.60 746.61 451.53 745.62 443.74
  C 743.46 426.65 724.08 419.03 709.79 414.84
  A 0.39 0.39 0.0 0 0 709.29 415.22
  L 709.29 435.97
  A 1.12 1.11 -77.5 0 0 709.93 436.98
  Z
  M 441.57 450.77
  A 0.58 0.58 0.0 0 0 442.11 449.99
  L 436.35 434.36
  A 0.58 0.58 0.0 0 0 435.81 433.98
  L 408.72 433.98
  A 0.58 0.58 0.0 0 0 408.18 434.37
  L 402.79 449.99
  A 0.58 0.58 0.0 0 0 403.34 450.76
  L 441.57 450.77
  Z
  M 700.13 464.24
  C 690.95 464.41 683.40 461.70 676.08 456.67
  Q 675.61 456.35 675.31 456.83
  L 665.25 472.72
  Q 664.99 473.14 665.39 473.44
  Q 681.03 484.65 700.52 483.41
  A 0.33 0.33 0.0 0 0 700.83 483.08
  L 700.84 464.94
  A 0.70 0.69 89.2 0 0 700.13 464.24
  Z"
/>
<path fill="#095393" d="
  M 150.47 347.35
  L 150.48 482.08
  A 0.53 0.53 0.0 0 1 149.95 482.61
  L 125.76 482.54
  A 0.53 0.53 0.0 0 1 125.23 482.01
  L 125.23 347.33
  A 0.53 0.53 0.0 0 0 124.70 346.80
  L 80.07 346.87
  A 0.53 0.53 0.0 0 1 79.54 346.34
  L 79.48 330.16
  A 0.53 0.53 0.0 0 1 80.01 329.63
  L 195.60 329.60
  A 0.53 0.53 0.0 0 1 196.13 330.13
  L 196.05 346.34
  A 0.53 0.53 0.0 0 1 195.52 346.87
  L 151.00 346.82
  A 0.53 0.53 0.0 0 0 150.47 347.35
  Z"
/>
<rect fill="#3f83c3" x="225.26" y="329.69" width="24.86" height="152.80" rx="0.64"/>
<path fill="#095393" d="
  M 295.12 422.05
  A 0.84 0.84 0.0 0 0 294.70 423.25
  L 328.69 481.81
  A 0.56 0.55 -14.7 0 1 328.20 482.64
  L 303.00 482.57
  A 0.72 0.70 76.1 0 1 302.37 482.18
  L 273.99 427.80
  A 0.73 0.71 -13.5 0 0 273.35 427.42
  L 259.03 427.53
  A 0.50 0.50 0.0 0 1 258.52 427.03
  L 258.50 409.28
  A 0.33 0.32 -0.0 0 1 258.83 408.96
  Q 266.56 409.12 273.86 408.95
  C 289.25 408.60 297.42 396.49 298.16 382.29
  C 298.45 376.90 298.45 370.87 296.59 365.85
  Q 291.79 352.84 277.96 349.61
  C 272.04 348.24 265.27 348.58 259.17 348.68
  A 0.64 0.64 0.0 0 1 258.52 348.04
  L 258.49 330.05
  A 0.42 0.42 0.0 0 1 258.89 329.63
  Q 266.02 329.30 272.86 329.78
  C 301.60 331.81 325.82 352.67 322.42 383.35
  Q 319.83 406.79 300.70 419.17
  Q 297.97 420.94 295.12 422.05
  Z"
/>
<path fill="#095393" d="
  M 605.05 433.83
  A 0.15 0.14 -7.9 0 0 605.16 433.69
  Q 605.11 381.97 605.17 330.00
  Q 605.17 329.61 605.56 329.61
  L 630.07 329.55
  A 0.53 0.52 -0.0 0 1 630.60 330.07
  L 630.59 481.97
  A 0.64 0.63 0.0 0 1 629.95 482.60
  L 606.04 482.54
  A 1.46 1.46 0.0 0 1 604.77 481.80
  L 554.99 394.43
  A 9.35 9.35 0.0 0 1 553.77 389.85
  Q 553.73 368.44 553.74 345.97
  Q 553.74 345.75 553.70 345.53
  Q 553.63 345.20 553.96 345.13
  A 0.44 0.43 -21.6 0 1 554.43 345.33
  Q 579.49 389.54 604.62 433.71
  Q 604.73 433.91 604.93 433.87
  Q 604.98 433.85 605.05 433.83
  Z"
/>
<path fill="#3f83c3" d="
  M 422.19 369.02
  L 382.55 482.29
  A 0.32 0.32 0.0 0 1 382.24 482.50
  L 356.98 482.48
  A 0.32 0.32 0.0 0 1 356.68 482.05
  L 410.01 330.11
  A 0.32 0.32 0.0 0 1 410.32 329.90
  L 434.48 329.89
  A 0.32 0.32 0.0 0 1 434.78 330.10
  L 487.69 482.06
  A 0.32 0.32 0.0 0 1 487.39 482.48
  L 462.36 482.50
  A 0.32 0.32 0.0 0 1 462.06 482.28
  L 422.79 369.02
  A 0.32 0.32 0.0 0 0 422.19 369.02
  Z"
/>
<rect fill="#3f83c3" x="520.00" y="329.70" width="25.28" height="152.78" rx="0.59"/>
<path fill="#095393" d="
  M 741.76 373.71
  L 734.26 389.75
  Q 733.96 390.37 733.34 390.09
  Q 722.13 384.98 709.86 384.40
  A 0.62 0.61 -88.5 0 1 709.28 383.78
  L 709.27 363.80
  A 0.44 0.44 0.0 0 1 709.75 363.36
  C 721.20 364.31 731.94 366.52 741.52 372.85
  A 0.69 0.68 29.6 0 1 741.76 373.71
  Z"
/>
<path fill="#3f83c3" d="
  M 690.14 402.14
  C 691.56 406.31 696.55 409.46 700.35 411.24
  A 0.83 0.83 0.0 0 1 700.82 411.97
  L 700.83 433.27
  A 0.22 0.22 0.0 0 1 700.56 433.48
  C 689.42 430.42 678.19 424.76 670.63 416.53
  Q 665.76 411.23 664.83 403.21
  C 662.24 380.71 679.40 365.85 700.31 363.87
  A 0.51 0.51 0.0 0 1 700.87 364.38
  L 700.79 383.82
  A 0.98 0.98 0.0 0 1 700.04 384.77
  C 697.04 385.49 694.43 386.63 692.35 389.03
  C 689.39 392.44 688.81 398.23 690.14 402.14
  Z"
/>
<path fill="#095393" d="
  M 723.92 451.82
  C 724.94 442.42 716.62 440.04 709.93 436.98
  A 1.12 1.11 -77.5 0 1 709.29 435.97
  L 709.29 415.22
  A 0.39 0.39 0.0 0 1 709.79 414.84
  C 724.08 419.03 743.46 426.65 745.62 443.74
  C 746.61 451.53 745.37 459.60 741.02 466.27
  C 733.92 477.14 722.61 481.58 710.07 483.18
  Q 709.31 483.28 709.30 482.51
  L 709.26 464.01
  A 0.83 0.82 -5.5 0 1 709.93 463.20
  C 716.33 461.93 723.14 458.99 723.92 451.82
  Z"
/>
<path fill="#095393" d="
  M 441.57 450.77
  L 403.34 450.76
  A 0.58 0.58 0.0 0 1 402.79 449.99
  L 408.18 434.37
  A 0.58 0.58 0.0 0 1 408.72 433.98
  L 435.81 433.98
  A 0.58 0.58 0.0 0 1 436.35 434.36
  L 442.11 449.99
  A 0.58 0.58 0.0 0 1 441.57 450.77
  Z"
/>
<path fill="#3f83c3" d="
  M 676.08 456.67
  C 683.40 461.70 690.95 464.41 700.13 464.24
  A 0.70 0.69 89.2 0 1 700.84 464.94
  L 700.83 483.08
  A 0.33 0.33 0.0 0 1 700.52 483.41
  Q 681.03 484.65 665.39 473.44
  Q 664.99 473.14 665.25 472.72
  L 675.31 456.83
  Q 675.61 456.35 676.08 456.67
  Z"
/>
</svg>
