<svg version="1.1" xmlns="http://www.w3.org/2000/svg" xmlns:xlink="http://www.w3.org/1999/xlink" width="265.70897"
    height="61.33859" viewBox="0,0,265.70897,61.33859">
    <g transform="translate(-72.57315,-166.80491)">
        <g data-paper-data="{&quot;isPaintingLayer&quot;:true}" fill-rule="nonzero" stroke="none" stroke-width="1"
            stroke-linecap="butt" stroke-linejoin="miter" stroke-miterlimit="10" stroke-dasharray=""
            stroke-dashoffset="0" style="mix-blend-mode: normal">
            <path
                d="M100.7564,227.73169h-9.92823c-0.0465,0 -0.08419,-0.03769 -0.08419,-0.08419l-0.00172,-53.87154c0,-0.0465 -0.03769,-0.0842 -0.08419,-0.0842h-18.00071c-0.0465,0 -0.0842,-0.03769 -0.0842,-0.08419v-6.70473c0,-0.0465 0.0377,-0.0842 0.0842,-0.0842h46.22519c0.0465,0 0.08419,0.0377 0.08419,0.0842v6.70473c0,0.0465 -0.03769,0.08419 -0.08419,0.08419h-17.96462c-0.0465,0 -0.0842,0.0377 -0.0842,0.0842l0.00688,53.87154c0,0.0465 -0.0377,0.08419 -0.0842,0.08419z"
                fill="#24528f" />
            <path
                d="M158.17447,203.88539l13.68267,23.58856c0.09623,0.16725 0.0481,0.25087 -0.14434,0.25087l-10.21002,0.02062c-0.05498,0 -0.09508,-0.02464 -0.12028,-0.07389l-11.39049,-21.83935c-0.02634,-0.05041 -0.06816,-0.07503 -0.12543,-0.07389l-5.87652,0.03436c-0.07217,0 -0.10825,-0.03608 -0.10825,-0.10825v-7.16179c0,-0.05498 0.02806,-0.08305 0.08419,-0.08419c1.79388,-0.00458 3.58376,-0.01031 5.36962,-0.01718c8.68935,-0.03265 11.2599,-7.94189 10.18254,-15.10197c-0.84711,-5.61534 -5.1033,-8.72887 -10.70833,-8.8543c-1.61404,-0.03665 -3.22807,-0.05155 -4.84211,-0.04468c-0.02262,0.00046 -0.04448,-0.00838 -0.06064,-0.02454c-0.01616,-0.01616 -0.02527,-0.03828 -0.02527,-0.06137v-7.38861c0,-0.06186 0.03092,-0.09393 0.09278,-0.09622c1.97487,-0.06529 3.77621,-0.05899 5.40399,0.0189c9.8406,0.46909 19.2688,7.14118 19.98189,17.55052c0.57563,8.40755 -3.31628,15.80131 -11.13446,19.31004c-0.0756,0.03322 -0.09278,0.08534 -0.05155,0.15636z"
                fill="#24528f" />
            <path
                d="M281.92848,208.50757c0.00799,0.01292 0.02353,0.01905 0.03819,0.01509c0.01466,-0.00396 0.02499,-0.01708 0.02539,-0.03227l0.0189,-41.53257c0,-0.09278 0.0464,-0.13918 0.13918,-0.13918h9.90073c0.08362,0 0.12486,0.04181 0.12372,0.12543c-0.02578,1.165 0.03436,2.38497 0.03436,3.46577c0.00458,17.67652 0.00516,35.35306 0.00172,53.02958c-0.00172,1.30933 -0.06186,2.78705 -0.03608,4.18573c0.00115,0.06873 -0.03265,0.10309 -0.10138,0.10309c-3.13529,0.00688 -6.26199,0.00802 -9.3801,0.00343c-0.24572,-0.00172 -0.60139,0.13918 -0.78353,-0.18042c-6.78607,-11.92716 -13.56526,-23.8314 -20.33757,-35.71274c-0.04955,-0.08552 -0.07563,-0.18214 -0.0756,-0.28008l0.00516,-18.71036c0.00068,-0.03301 0.02318,-0.06155 0.05511,-0.06993c0.03193,-0.00838 0.06555,0.00544 0.08235,0.03385z"
                fill="#24528f" />
            <path
                d="M130.70774,227.68874c-0.05409,0 -0.09794,0 -0.09794,0v-60.82714c0,0 0.04385,0 0.09794,0h9.72547c0.05409,0 0.09794,0 0.09794,0v60.82714c0,0 -0.04385,0 -0.09794,0z"
                fill="#5083c1" />
            <path
                d="M248.14193,227.68874c-0.02562,0 -0.04639,0 -0.04639,0v-60.82714c0,0 0.02077,0 0.04639,0h9.95916c0.02562,0 0.04639,0 0.04639,0v60.82714c0,0 -0.02077,0 -0.04639,0z"
                fill="#5083c1" />
            <path
                d="M209.17304,182.29176l-15.89581,45.36605c-0.00728,0.02138 -0.02725,0.03584 -0.04983,0.03609l-10.21518,-0.00688c-0.01738,0.00037 -0.03385,-0.00777 -0.04412,-0.0218c-0.01027,-0.01403 -0.01304,-0.03219 -0.00742,-0.04865l21.29294,-60.63297c0.00728,-0.02138 0.02725,-0.03584 0.04983,-0.03609h9.75984c0.02258,0.00025 0.04254,0.01471 0.04983,0.03609l21.11595,60.63469c0.00562,0.01646 0.00284,0.03462 -0.00743,0.04865c-0.01027,0.01403 -0.02674,0.02217 -0.04412,0.0218h-10.12755c-0.02258,-0.00025 -0.04254,-0.01471 -0.04983,-0.03609l-15.72743,-45.36089c-0.00783,-0.02073 -0.02767,-0.03445 -0.04983,-0.03445c-0.02215,0 -0.042,0.01372 -0.04983,0.03445z"
                fill="#5083c1" />
            <path
                d="M323.48854,188.37963l0.05327,-7.96079c0.00115,-0.07102 0.03666,-0.10826 0.10654,-0.11169c0.18099,-0.00802 0.41697,0.00057 0.70793,0.02578c4.47784,0.38317 8.36974,1.32824 12.0881,3.72523c0.06615,0.04368 0.09028,0.12924 0.05671,0.20104l-3.13243,6.65146c-0.03208,0.06644 -0.08133,0.08477 -0.14777,0.05498c-3.02074,-1.39524 -6.19612,-2.18393 -9.52615,-2.36607c-0.13861,-0.00802 -0.20734,-0.08133 -0.20619,-0.21994z"
                fill="#24528f" />
            <path
                d="M320.11727,188.69751c-1.79388,0.33163 -3.62385,1.41414 -4.1823,3.2527c-1.19421,3.92111 0.94677,5.959 4.17199,7.40751c0.04195,0.01908 0.06932,0.06046 0.07045,0.10654c0,2.7103 0.00057,5.41716 0.00172,8.12059c0,0.18558 -0.01947,0.36943 -0.05842,0.55157c-0.0126,0.05842 -0.04754,0.07905 -0.10481,0.06186c-3.89706,-1.16327 -7.55356,-2.83173 -10.63444,-5.51911c-2.31453,-2.0207 -3.49327,-4.22869 -3.64276,-7.29411c-0.22796,-4.63592 1.30761,-8.33137 4.60671,-11.08634c2.67192,-2.23033 6.21502,-3.54654 9.65846,-3.84208c0.1157,-0.01031 0.17354,0.04238 0.17354,0.15808v8.01234c-0.00034,0.03494 -0.02568,0.06463 -0.06014,0.07045z"
                fill="#5083c1" />
            <path
                d="M328.65084,212.51519c-1.07736,-1.31964 -3.30081,-2.21143 -4.90226,-2.78534c-0.05903,-0.02168 -0.09819,-0.078 -0.09794,-0.1409l0.02233,-8.64811c0,-0.07217 0.03437,-0.09737 0.1031,-0.0756c6.15317,1.96571 14.00227,4.79228 14.4748,12.50221c0.55157,8.98317 -6.27516,13.9954 -14.47995,14.7755c-0.0527,0.00458 -0.07904,-0.01947 -0.07904,-0.07216l-0.03953,-7.71852c-0.00014,-0.07148 0.05149,-0.13256 0.122,-0.14434c1.65814,-0.28867 3.37299,-0.85398 4.56376,-2.09802c1.42102,-1.48288 1.60143,-4.01906 0.31273,-5.59472z"
                fill="#24528f" />
            <path
                d="M203.68657,208.35808h10.9128c0.06242,-0.00002 0.11813,0.03918 0.13918,0.09794l2.31452,6.44871c0.01621,0.04528 0.0094,0.09561 -0.0183,0.13492c-0.02769,0.03931 -0.07279,0.0627 -0.12088,0.06268l-15.4714,-0.00172c-0.04766,-0.00018 -0.09231,-0.02332 -0.11992,-0.06218c-0.0276,-0.03886 -0.03478,-0.08864 -0.01926,-0.1337l2.24407,-6.44699c0.02047,-0.05945 0.07631,-0.09943 0.13918,-0.09966z"
                fill="#24528f" />
            <path
                d="M315.96419,220.05613c1.37291,0.32304 2.76128,0.38834 4.09123,0.37115c0.08362,-0.00115 0.12544,0.04067 0.12544,0.12544l-0.01031,7.42641c0,0.05498 -0.02807,0.08419 -0.0842,0.08763c-5.33698,0.25087 -9.82513,-0.93646 -14.14832,-4.05858c-0.04239,-0.03093 -0.04983,-0.06815 -0.02234,-0.11168l4.10841,-6.52775c0.012,-0.019 0.0311,-0.03242 0.05304,-0.03726c0.02195,-0.00484 0.04492,-0.0007 0.0638,0.01148c1.77326,1.17702 3.76647,2.23204 5.82325,2.71317z"
                fill="#5083c1" />
        </g>
    </g>
</svg>
